<?xml version="1.0" encoding="utf-8"?>
<!-- Generator: Adobe Illustrator 18.1.1, SVG Export Plug-In . SVG Version: 6.00 Build 0)  -->
<svg version="1.1" id="Layer_1" xmlns="http://www.w3.org/2000/svg" xmlns:xlink="http://www.w3.org/1999/xlink" x="0px" y="0px"
	 viewBox="75 75 350 350" enable-background="new 75 75 350 350" xml:space="preserve">
<g>
	<g>
		<path d="M161.5,280.3c-2.1-6.3-4.2-12.6-4.2-21c0-6.3-2.1-10.5-8.4-10.5c-4.2,0-6.3-2.1-6.3-8.4c0-14.7,0-27.3,2.1-42
			c2.1-14.7,6.3-27.3,18.9-39.9c12.6-10.5,18.9-25.2,25.2-39.9c16.8-6.3,33.6-14.7,44.1-29.4c0,2.1-2.1,4.2-2.1,6.3
			c2.1,0,4.2,0,4.2,0c10.5-4.2,21-2.1,29.4,6.3c2.1,2.1,6.3,0,10.5,2.1c4.2,2.1,8.4,4.2,10.5,6.3c4.2,2.1,6.3,6.3,10.5,8.4
			c12.6,6.3,18.9,16.8,27.3,27.3c4.2,6.3,8.4,10.5,12.6,14.7c8.4,10.5,14.7,23.1,14.7,37.8c0,12.6,0,25.2,0,37.8
			c0,6.3-2.1,12.6-2.1,21c0,4.2,0,10.5,0,16.8c-2.1-4.2-6.3-6.3-8.4-10.5c-4.2,8.4-4.2,14.7,0,21s2.1,8.4-4.2,12.6
			c-2.1-14.7-6.3-31.5-8.4-48.3c-4.2,14.7-10.5,27.3-21,35.7c-2.1,2.1-4.2,2.1-6.3,2.1c-4.2,0-10.5,0-14.7,0
			c-14.7,0-21-4.2-27.3-16.8c-2.1-4.2-4.2-6.3-6.3-10.5c-2.1,2.1-6.3,6.3-8.4,8.4c-4.2,8.4-10.5,12.6-18.9,12.6
			c-4.2,0-8.4,0-12.6-2.1c4.2,0,8.4,0,14.7,0c12.6-2.1,18.9-8.4,18.9-21c0-2.1-2.1-6.3-4.2-6.3c-12.6-4.2-27.3-8.4-42-6.3
			c-10.5,2.1-10.5,4.2-10.5,12.6c0,2.1,0,4.2,2.1,8.4c0,2.1,2.1,4.2,2.1,8.4c-2.1-2.1-2.1-6.3-4.2-8.4c-4.2-8.4-6.3-10.5-8.4-14.7
			c-2.1-2.1-2.1-6.3-2.1-8.4c0-2.1,4.2-4.2,6.3-4.2c10.5,0,18.9-2.1,29.4-2.1c8.4,0,16.8,0,23.1,4.2c10.5,6.3,21,0,27.3-6.3
			c10.5-8.4,21-10.5,33.6-10.5c4.2,0,8.4,2.1,14.7,4.2c-2.1-2.1-4.2-4.2-6.3-6.3c-8.4-6.3-14.7-12.6-23.1-18.9
			c-14.7-12.6-31.5-25.2-52.5-21c-8.4,0-14.7,0-23.1,0c-6.3,2.1-10.5,6.3-12.6,12.6c-2.1,18.9-14.7,35.7-23.1,52.5
			c-4.2,10.5-4.2,23.1-8.4,33.6C163.6,280.3,161.5,280.3,161.5,280.3z M310.6,255v2.1c-2.1,0-4.2,0-8.4,0c-8.4,0-14.7,2.1-23.1,2.1
			c-2.1,0-4.2,4.2-6.3,6.3c2.1,2.1,4.2,6.3,8.4,6.3c8.4,0,16.8,0,25.2,0c8.4,0,10.5-6.3,10.5-14.7c0-6.3-6.3-10.5-14.7-12.6
			C304.3,248.7,308.5,252.9,310.6,255z"/>
		<path d="M272.8,286.6c12.6,6.3,12.6,18.9,12.6,31.5c-4.2,0-8.4,0-12.6-2.1c0,6.3,2.1,6.3,6.3,6.3c4.2,0,8.4,0,8.4,6.3
			c0,4.2-2.1,8.4-8.4,8.4c-2.1,0-6.3,2.1-8.4,4.2c-4.2,2.1-6.3,2.1-10.5,2.1c0-4.2,2.1-8.4,2.1-12.6c2.1,0,4.2-2.1,8.4-4.2
			c-6.3-2.1-12.6-2.1-16.8-4.2v-2.1c2.1-2.1,4.2-2.1,8.4-4.2c-2.1-2.1-2.1-4.2-2.1-4.2c-2.1-2.1-4.2-4.2-2.1-8.4
			c2.1-4.2,6.3-6.3,12.6-6.3c2.1,0,6.3,0,8.4,2.1c0-4.2,0-6.3-2.1-10.5C274.9,288.7,272.8,288.7,272.8,286.6z"/>
		<path d="M199.3,250.8c8.4-6.3,16.8-10.5,25.2-6.3c2.1,0,6.3,6.3,6.3,8.4c0,4.2-6.3,4.2-10.5,2.1s-8.4-4.2-10.5-4.2
			C207.7,250.8,203.5,250.8,199.3,250.8z"/>
		<path d="M237.1,236.1c-10.5-2.1-18.9-4.2-27.3-6.3C220.3,223.5,230.8,225.6,237.1,236.1z"/>
		<path d="M253.9,391.6c4.2,0,8.4-2.1,14.7-2.1c0,0,0,2.1,2.1,2.1c-4.2,2.1-6.3,4.2-10.5,6.3c-2.1,0-4.2-2.1-6.3-4.2
			C251.8,393.7,251.8,393.7,253.9,391.6z"/>
		<path d="M216.1,328.6c2.1-6.3,6.3-6.3,8.4-4.2c0,0,0,2.1,0,4.2C222.4,328.6,220.3,328.6,216.1,328.6z"/>
	</g>
</g>
</svg>
